<svg width="25" height="25" viewBox="0 0 25 25" fill="none" xmlns="http://www.w3.org/2000/svg">
<path fill-rule="evenodd" clip-rule="evenodd" d="M23.7959 17.9444C22.095 21.5774 18.7467 24.2631 14.735 25C14.9288 24.7914 15.1047 24.5645 15.2645 24.3312C15.3583 24.1944 15.4475 24.0537 15.5324 23.9112C15.6395 23.7315 15.7394 23.5483 15.8332 23.3614C15.9502 23.1318 16.0574 22.8985 16.1583 22.6617C16.2967 22.336 16.4225 22.0057 16.5368 21.6709C16.6743 21.2717 16.7957 20.868 16.9056 20.4596C17.1287 19.6322 17.3037 18.7919 17.4403 17.9445L23.7959 17.9444ZM1.20465 17.9444H7.56001C7.69662 18.7918 7.87163 19.6321 8.09491 20.4595C8.20464 20.8679 8.32618 21.2716 8.46368 21.6708C8.57798 22.0056 8.70381 22.3359 8.8422 22.6616C8.94307 22.8984 9.05029 23.1316 9.16725 23.3613C9.26103 23.5481 9.36101 23.7314 9.46808 23.911C9.553 24.0536 9.64221 24.1942 9.73598 24.3311C9.89578 24.5644 10.0717 24.7913 10.2654 24.9999C6.25372 24.2631 2.90553 21.5774 1.20459 17.9443L1.20465 17.9444ZM15.6288 17.9444C15.552 18.3871 15.4635 18.8281 15.3627 19.2654C15.1663 20.113 14.9224 20.9522 14.5958 21.758C14.3698 22.3151 14.1047 22.8621 13.7583 23.3521C13.694 23.4438 13.6261 23.5327 13.5546 23.619C13.5038 23.6807 13.4502 23.7405 13.3948 23.7986C13.3573 23.8376 13.3189 23.8758 13.2787 23.9128C13.0538 24.1207 12.7654 24.3167 12.4484 24.294C12.2788 24.2813 12.119 24.2086 11.9779 24.1153C11.7208 23.9465 11.5083 23.7105 11.3234 23.4647C11.0136 23.0518 10.769 22.5891 10.5574 22.1173C10.2663 21.4649 10.0385 20.7844 9.84849 20.0957C9.65295 19.3879 9.49671 18.6693 9.37163 17.9444L15.6288 17.9444ZM24.4813 8.87098C24.8188 10.0215 25 11.2391 25 12.5002C25 13.7615 24.8188 14.9791 24.4813 16.1297H17.6768C17.8224 14.7024 17.8769 13.2652 17.8509 11.8308C17.8341 10.8426 17.7778 9.85447 17.6768 8.87101L24.4813 8.87098ZM0.518826 8.87098H7.32334C7.22247 9.85447 7.16621 10.8426 7.14922 11.8307C7.12338 13.2652 7.17787 14.7024 7.32334 16.1296H0.518826C0.181368 14.9791 0 13.7615 0 12.5002C0 11.2391 0.181356 10.0214 0.518826 8.87094V8.87098ZM15.8814 8.87098C15.9884 9.8645 16.0482 10.8644 16.0661 11.8633C16.0902 13.2542 16.0367 14.6472 15.892 16.0308C15.8884 16.0635 15.8849 16.0971 15.8813 16.1297H9.1188C9.01173 15.1362 8.95191 14.1363 8.93405 13.1374C8.90997 11.7463 8.96344 10.3535 9.10817 8.96988L9.1188 8.87098H15.8814ZM14.734 1.17251e-05C18.7464 0.737651 22.0946 3.42245 23.7956 7.05636H17.4395C17.2618 5.9558 17.0226 4.86339 16.6913 3.80082C16.5823 3.45248 16.4636 3.1076 16.3324 2.76738C16.2234 2.48523 16.1047 2.20579 15.9761 1.93173C15.8851 1.73752 15.7886 1.54618 15.686 1.35826C15.6037 1.20953 15.5181 1.06155 15.427 0.917307C15.3574 0.806548 15.2842 0.696838 15.2091 0.589682C15.0646 0.385572 14.9065 0.185956 14.7342 0L14.734 1.17251e-05ZM10.2659 1.17251e-05C10.0936 0.18596 9.93557 0.385563 9.79101 0.589693C9.71599 0.696852 9.64273 0.806559 9.57318 0.917319C9.48205 1.06155 9.3964 1.20953 9.31414 1.35827C9.2115 1.54617 9.11506 1.73753 9.02394 1.93174C8.89546 2.20579 8.77671 2.48523 8.66772 2.76739C8.53658 3.10763 8.4177 3.45251 8.30885 3.80083C7.9776 4.8634 7.73834 5.95585 7.56069 7.05638H1.20456C2.90543 3.42247 6.2537 0.737702 10.2662 2.34502e-05L10.2659 1.17251e-05ZM15.6285 7.05636C15.5034 6.33236 15.3472 5.61274 15.1516 4.90511C14.9704 4.24731 14.7544 3.59669 14.4812 2.97147C14.2803 2.51058 14.0482 2.05867 13.758 1.64865C13.5785 1.39456 13.3749 1.15052 13.1285 0.960837C12.9732 0.841072 12.7982 0.743972 12.6035 0.712302C12.5607 0.706749 12.5177 0.704948 12.474 0.705849C12.1481 0.723108 11.8678 0.937272 11.6446 1.16225C11.6035 1.20307 11.5642 1.24479 11.5258 1.28847C11.4696 1.35105 11.416 1.41634 11.3641 1.48252C11.307 1.55606 11.2535 1.63051 11.2008 1.70674C10.8561 2.21025 10.5919 2.76915 10.3668 3.33632C10.0748 4.07488 9.84991 4.83969 9.66591 5.61275C9.55263 6.09105 9.45531 6.57281 9.37127 7.05637L15.6285 7.05636Z" fill="white"/>
</svg>
