<svg width="18" height="17" viewBox="0 0 18 17" fill="none" xmlns="http://www.w3.org/2000/svg">
<path fill-rule="evenodd" clip-rule="evenodd" d="M5.99983 11.7241V13.4828C5.99983 13.9495 6.18939 14.3967 6.52723 14.7262C6.86445 15.0562 7.32228 15.2414 7.79985 15.2414H12.9516L14.5757 16.8283C14.7467 16.9954 15.0042 17.0458 15.228 16.9561C15.4518 16.8664 15.5981 16.6542 15.5999 16.4174L15.6078 15.2414H16.2C16.6776 15.2414 17.1354 15.0562 17.4726 14.7262C17.8104 14.3967 18 13.9495 18 13.4828V5.27592C18 4.80932 17.8104 4.36204 17.4726 4.03255C17.1354 3.70248 16.6776 3.51728 16.2 3.51728H12V1.75864C12 1.29195 11.8104 0.844766 11.4726 0.515269C11.1354 0.185202 10.6776 0 10.2 0H1.80001C1.32234 0 0.864641 0.1852 0.527393 0.515269C0.189559 0.844741 0 1.29195 0 1.75864V9.96552C0 10.4321 0.189557 10.8794 0.527393 11.2089C0.864616 11.539 1.32234 11.7242 1.80001 11.7242H2.40005V12.8965C2.40005 13.1334 2.54643 13.3474 2.77022 13.4383C2.99461 13.5291 3.25264 13.4787 3.42424 13.311L5.04839 11.7241L5.99983 11.7241ZM11.5662 10.5523L13.6368 10.5593L14.4432 12.5279C14.5656 12.8286 14.9154 12.9746 15.2227 12.8544C15.5304 12.7348 15.6798 12.393 15.5568 12.0929L13.1568 6.23077C13.0662 6.00794 12.8453 5.86203 12.6 5.86203C12.3546 5.86203 12.1338 6.00796 12.0432 6.23077L9.64311 12.0929C9.52014 12.393 9.66951 12.7348 9.97736 12.8544C10.2845 12.9746 10.6343 12.8286 10.7567 12.5279L11.5662 10.5523ZM12.0455 9.3816L13.1562 9.38519L12.6 8.02692L12.0455 9.3816ZM6.874 4.68962C6.57408 5.33627 6.19605 6.00862 5.71424 6.59253C5.52041 6.3633 5.34345 6.1206 5.18148 5.87267C5.00324 5.59942 4.63247 5.51971 4.35279 5.69328C4.07383 5.86733 3.99163 6.23027 4.16978 6.50283C4.3786 6.82292 4.60904 7.13241 4.86341 7.4232C4.32222 7.83645 3.68497 8.12784 2.9326 8.21045C2.60321 8.24681 2.36621 8.53752 2.40343 8.85885C2.44065 9.18067 2.73819 9.41222 3.06698 9.37586C4.10568 9.26095 4.97744 8.83306 5.70572 8.23508C6.26378 8.68238 6.90578 9.0329 7.6408 9.23052C7.95996 9.31604 8.29055 9.13259 8.37818 8.82075C8.46641 8.50882 8.27794 8.18583 7.95876 8.09962C7.42959 7.95777 6.96333 7.71157 6.55296 7.39915C7.36359 6.45122 7.93961 5.31221 8.33501 4.31493C8.4544 4.01308 8.30077 3.67361 7.99182 3.55637C7.9288 3.53291 7.86399 3.52001 7.79978 3.51768L6.32858 3.5171V2.93086C6.32858 2.6073 6.05972 2.34473 5.72855 2.34473C5.39737 2.34473 5.12852 2.6073 5.12852 2.93086V3.5171H2.99971C2.66854 3.5171 2.39978 3.77968 2.39978 4.10334C2.39978 4.4269 2.66854 4.68948 2.99971 4.68948L6.874 4.68962Z" fill="#41EEAB"/>
</svg>
