<svg width="190" height="46" viewBox="0 0 190 46" fill="none" xmlns="http://www.w3.org/2000/svg">
<path fill-rule="evenodd" clip-rule="evenodd" d="M7.81082 0H0V7.81082V15.6216H7.81082C12.1229 15.6216 15.6216 12.1265 15.6216 7.81082C15.6216 3.49515 12.1229 0 7.81082 0ZM77.5613 24.9879C78.1971 25.6024 78.5167 26.4833 78.5167 27.6235V27.7123C78.5167 29.3888 77.8241 30.5716 76.4353 31.2607C75.0465 31.9498 73.0538 32.3014 70.4573 32.3192H70.4147H69.5444H57.3931V15.8486H71.4803C73.203 15.8628 74.574 16.2216 75.597 16.9178C76.62 17.614 77.1315 18.6014 77.1315 19.8766V19.9654C77.1315 20.928 76.929 21.7165 76.5312 22.3239C76.1298 22.9313 75.5295 23.386 74.7303 23.6808C75.9771 23.9365 76.9219 24.3699 77.5613 24.9879ZM70.539 22.2493C70.8871 22.2138 71.1854 22.0824 71.4305 21.8586C71.6756 21.6348 71.7964 21.2654 71.7964 20.7468C71.7964 20.2709 71.6756 19.9299 71.4412 19.7239C71.2032 19.5178 70.8977 19.3864 70.5283 19.3331C70.1589 19.2799 69.6155 19.255 68.9051 19.255H68.8838H62.5399V22.2813C64.0673 22.2813 65.076 22.2884 65.5662 22.3026H66.6353H68.9051C69.6439 22.3061 70.1873 22.2848 70.539 22.2493ZM71.5051 28.5257C71.9207 28.4724 72.2546 28.3268 72.5068 28.0817C72.759 27.8366 72.8833 27.4459 72.8833 26.9131C72.8833 26.3945 72.759 26.018 72.5068 25.7906C72.2546 25.5598 71.9207 25.4212 71.5051 25.368C71.0895 25.3147 70.4644 25.2898 69.6368 25.2898H69.6155H62.5399V28.5825C64.632 28.5825 66.1203 28.5861 67.0012 28.5932C67.8821 28.6003 68.4895 28.6038 68.8163 28.6038H69.6403C70.4679 28.6038 71.0895 28.579 71.5051 28.5257ZM85.4145 32.3192H79.916V15.8486H85.4145V32.3192ZM106.133 15.8525H87.1054V20.2179L98.7666 20.2392L87.0592 27.94H87.0166V32.3231H106.066V27.9613L94.4047 27.94L106.133 20.2606V15.8525ZM123.84 16.5413C124.899 17.003 125.723 17.6424 126.309 18.4664C126.895 19.2905 127.186 20.2424 127.186 21.3258V21.4146C127.186 23.1941 126.579 24.5723 125.36 25.542C124.146 26.5153 122.483 26.9983 120.377 26.9983H113.234V32.3192H107.735V15.8486H120.178C121.56 15.8522 122.778 16.0795 123.84 16.5413ZM120.924 23.0379C121.3 22.9952 121.617 22.8532 121.869 22.6152C122.121 22.3772 122.245 21.9829 122.245 21.4359C122.245 20.8711 122.121 20.4627 121.869 20.2105C121.617 19.9583 121.29 19.802 120.888 19.7416C120.487 19.6812 119.922 19.6528 119.198 19.6528H118.462C118.164 19.6528 117.645 19.6564 116.903 19.6635C116.161 19.6706 114.935 19.6741 113.23 19.6741V23.1018H119.173H119.194C119.968 23.1053 120.547 23.084 120.924 23.0379ZM134.066 28.0923V15.8522V15.8486H128.571V32.3192H144.438V28.0923H134.066ZM168.073 32.3192H162.532L160.997 29.4918H151.673L150.139 32.3192H144.598L153.524 15.8486H159.154L168.073 32.3192ZM156.344 20.8818L153.673 25.78H158.99L156.344 20.8818ZM184.117 15.8522V25.9327L174.058 15.8522H168.561L168.56 15.8486V15.8522V32.3192V32.3228H174.058V32.3192V22.2422L184.117 32.3228H189.591V15.8522H184.117ZM26.8284 12.9687C26.8284 11.7575 26.6543 10.5924 26.3524 9.47712C32.7992 12.4111 37.2854 18.9077 37.2925 26.4485C37.2925 36.7457 28.9453 45.0929 18.6481 45.0929H0.00374035V26.4485V26.381H13.416C20.8219 26.381 26.8284 20.3782 26.8284 12.9687Z" fill="url(#paint0_linear_42_235)"/>
<defs>
<linearGradient id="paint0_linear_42_235" x1="18.6483" y1="9.47705" x2="185" y2="73" gradientUnits="userSpaceOnUse">
<stop stop-color="#41EEAB"/>
<stop offset="1" stop-color="#2AB5F0"/>
</linearGradient>
</defs>
</svg>
