<svg width="37" height="32" viewBox="0 0 37 32" fill="none" xmlns="http://www.w3.org/2000/svg">
<path d="M37 14.4527C37 6.47064 28.7176 0 18.5 0C8.28245 0 0 6.46992 0 14.4527C0 22.4355 8.28245 28.9054 18.5 28.9054C19.1744 28.9054 19.8385 28.8733 20.4942 28.8187C21.4997 30.4139 23.1637 31.5896 25.1866 31.9132C26.154 32.0678 27.1068 32.0115 27.9967 31.779C28.7098 31.5931 28.9282 30.715 28.4056 30.2099C27.6046 29.4356 27.0033 28.4716 26.6619 27.4076C32.7799 25.0497 36.9997 20.1419 36.9997 14.4524L37 14.4527ZM8.88 16.536C7.55177 16.536 6.475 15.4952 6.475 14.2113C6.475 12.9274 7.55177 11.8866 8.88 11.8866C10.2082 11.8866 11.285 12.9274 11.285 14.2113C11.285 15.4952 10.2082 16.536 8.88 16.536ZM18.5 16.536C17.1718 16.536 16.095 15.4952 16.095 14.2113C16.095 12.9274 17.1718 11.8866 18.5 11.8866C19.8282 11.8866 20.905 12.9274 20.905 14.2113C20.905 15.4952 19.8282 16.536 18.5 16.536ZM28.12 16.536C26.7918 16.536 25.715 15.4952 25.715 14.2113C25.715 12.9274 26.7918 11.8866 28.12 11.8866C29.4482 11.8866 30.525 12.9274 30.525 14.2113C30.525 15.4952 29.4482 16.536 28.12 16.536Z" fill="url(#paint0_linear_42_412)"/>
<defs>
<linearGradient id="paint0_linear_42_412" x1="18.5" y1="0" x2="18.5" y2="32" gradientUnits="userSpaceOnUse">
<stop stop-color="#41EEAB"/>
<stop offset="1" stop-color="#2AB5F0"/>
</linearGradient>
</defs>
</svg>
