<svg width="34" height="31" viewBox="0 0 34 31" fill="none" xmlns="http://www.w3.org/2000/svg">
<path d="M0 29.7554V17.9023C0 17.5722 0.132538 17.2556 0.368367 17.0222C0.604195 16.7889 0.92416 16.6577 1.25778 16.6577H8.49246C8.82609 16.6577 9.14602 16.7889 9.38187 17.0222C9.61773 17.2556 9.75024 17.5722 9.75024 17.9023V29.7554C9.75024 30.0855 9.6177 30.4021 9.38187 30.6355C9.14604 30.8689 8.82608 31 8.49246 31H1.25778C0.924156 31 0.604223 30.8688 0.368367 30.6355C0.13251 30.4021 0 30.0855 0 29.7554ZM13.3875 31H20.6169C20.9506 31 21.2705 30.8688 21.5063 30.6355C21.7422 30.4021 21.8747 30.0855 21.8747 29.7554V1.24458C21.8747 0.914458 21.7422 0.597883 21.5063 0.364502C21.2705 0.13112 20.9505 0 20.6169 0H13.3875C13.0539 0 12.7339 0.131148 12.4981 0.364502C12.2622 0.597855 12.1297 0.914462 12.1297 1.24458V29.7554C12.1297 30.0855 12.2622 30.4021 12.4981 30.6355C12.7339 30.8688 13.0539 31 13.3875 31ZM32.7422 8.49815H25.5176C25.184 8.49815 24.864 8.62929 24.6282 8.86265C24.3923 9.096 24.2598 9.41261 24.2598 9.74273V29.7554C24.2598 30.0855 24.3924 30.4021 24.6282 30.6355C24.864 30.8689 25.184 31 25.5176 31H32.7422C33.0762 31.0014 33.3969 30.8706 33.633 30.6369C33.8692 30.4032 34.0014 30.0859 34 29.7554V9.74273C34.0014 9.4123 33.8692 9.09492 33.633 8.86126C33.3969 8.62759 33.0762 8.49675 32.7422 8.49815Z" fill="url(#paint0_linear_42_409)"/>
<defs>
<linearGradient id="paint0_linear_42_409" x1="17" y1="0" x2="17" y2="31" gradientUnits="userSpaceOnUse">
<stop stop-color="#41EEAB"/>
<stop offset="1" stop-color="#2AB5F0"/>
</linearGradient>
</defs>
</svg>
