<svg width="37" height="37" viewBox="0 0 37 37" fill="none" xmlns="http://www.w3.org/2000/svg">
<path d="M29.6573 19.8854C35.2313 13.235 36.6536 3.97068 36.4998 1.16446C36.4998 0.856882 36.3461 0.587844 36.1538 0.357228C35.9616 0.165022 35.6926 0.0112244 35.3466 0.0112244C32.5403 -0.142566 23.276 1.24128 16.6641 6.81533L15.1265 6.23871C12.4356 5.23927 9.39873 6.04651 7.55355 8.2376L3.28656 13.2734C2.67154 13.9654 2.97898 15.0801 3.86318 15.3877L8.4377 17.0791C7.43826 18.7706 6.74625 20.1928 6.28502 21.1923C5.9006 21.9996 6.09281 22.9606 6.74625 23.6142L12.8969 29.8033C13.5119 30.4183 14.4729 30.6105 15.3187 30.2261C16.3182 29.7649 17.7406 29.0728 19.4319 28.0734L21.085 32.6479C21.3926 33.5321 22.5072 33.8012 23.1992 33.2245L28.1966 28.9576C30.3877 27.1123 31.1951 24.0755 30.1955 21.3846L29.6573 19.8854ZM26.7742 15.0802C25.3134 16.541 22.9301 16.541 21.4309 15.0802C19.97 13.6194 19.97 11.2361 21.4309 9.73687C22.8917 8.27604 25.275 8.27604 26.7742 9.73687C28.235 11.2361 28.235 13.6194 26.7742 15.0802Z" fill="url(#paint0_linear_42_415)"/>
<path d="M10.2441 31.3793L7.47641 34.1086C6.9382 34.6468 6.9382 35.5694 7.47641 36.1075C8.01462 36.6457 8.93724 36.6457 9.47529 36.1075L12.243 33.3398C12.7812 32.8015 12.7812 31.8789 12.243 31.3409C11.6665 30.8027 10.7823 30.8027 10.2441 31.3793Z" fill="#41EEAB"/>
<path d="M8.66815 27.8426C8.12994 27.3044 7.20732 27.3044 6.66927 27.8426L2.28696 32.2634C1.74875 32.8016 1.74875 33.7242 2.28696 34.2623C2.82517 34.8005 3.74779 34.8005 4.28584 34.2623L8.66815 29.8031C9.24477 29.2649 9.24477 28.3808 8.66815 27.8426Z" fill="#41EEAB"/>
<path d="M5.17025 26.3049C5.70846 25.7667 5.70846 24.8441 5.17025 24.306C4.63204 23.7678 3.70942 23.7678 3.17137 24.306L0.403658 27.0737C-0.134553 27.6119 -0.134553 28.5345 0.403658 29.0726C0.941868 29.6108 1.86449 29.6108 2.40254 29.0726L5.17025 26.3049Z" fill="#41EEAB"/>
<defs>
<linearGradient id="paint0_linear_42_415" x1="19.7378" y1="0" x2="19.7378" y2="33.5293" gradientUnits="userSpaceOnUse">
<stop stop-color="#41EEAB"/>
<stop offset="1" stop-color="#2AB5F0"/>
</linearGradient>
</defs>
</svg>
