<svg width="34" height="34" viewBox="0 0 34 34" fill="none" xmlns="http://www.w3.org/2000/svg">
<path d="M32.3364 9.67776H23.3145C22.6667 7.26802 21.7073 4.95408 20.461 2.79483C19.9041 1.82565 19.2876 0.892308 18.6153 0.000162628C21.5396 0.284156 24.3405 1.32504 26.7454 3.0211C29.1503 4.71717 31.0763 7.0106 32.3366 9.67786L32.3364 9.67776ZM15.3366 0C12.421 0.292129 9.62986 1.33656 7.23434 3.03227C4.8387 4.72784 2.91995 7.01721 1.66391 9.67763H10.6858C11.3337 7.26789 12.2931 4.95395 13.5393 2.7947C14.0962 1.82552 14.7127 0.892178 15.385 3.25255e-05L15.3366 0ZM17.0002 1.90379L16.6723 2.35533C15.1411 4.59868 13.9693 7.06957 13.1995 9.6776H20.8008C20.031 7.06941 18.8593 4.59855 17.328 2.35533L17.0002 1.90379ZM20.801 24.3223C20.0312 26.9305 18.8594 29.4014 17.3282 31.6446L17.0003 32.1083L16.6725 31.6446C15.1412 29.4012 13.9694 26.9303 13.1997 24.3223H20.801ZM10.6859 24.3223H1.66407C2.92426 26.9895 4.85051 29.2829 7.25523 30.9791C9.65994 32.6752 12.4611 33.716 15.3853 34C14.7131 33.1079 14.0966 32.1745 13.5397 31.2053C12.2934 29.0461 11.334 26.7322 10.6861 24.3224L10.6859 24.3223ZM23.3144 24.3223C22.6665 26.732 21.7071 29.046 20.4608 31.2052C19.9039 32.1744 19.2874 33.1078 18.6151 33.9999C21.5394 33.7159 24.3404 32.675 26.7453 30.979C29.1502 29.2829 31.0762 26.9895 32.3364 24.3222L23.3144 24.3223ZM10.1394 21.8815C9.57196 18.6523 9.57196 15.3478 10.1394 12.1185H0.716615C-0.238872 15.302 -0.238872 18.6981 0.716615 21.8815H10.1394ZM21.3835 21.8815C21.6963 20.2733 21.855 18.6387 21.8571 17C21.8549 15.3614 21.6963 13.7268 21.3835 12.1185H12.6165C11.9852 15.342 11.9852 18.6581 12.6165 21.8815H21.3835ZM33.2834 12.1185H23.8606C24.1436 13.7302 24.2859 15.3636 24.2856 17C24.2859 18.6365 24.1436 20.27 23.8606 21.8815H33.2834C34.2389 18.698 34.2389 15.3019 33.2834 12.1185Z" fill="url(#paint0_linear_42_420)"/>
<defs>
<linearGradient id="paint0_linear_42_420" x1="17" y1="0" x2="17" y2="34" gradientUnits="userSpaceOnUse">
<stop stop-color="#41EEAB"/>
<stop offset="1" stop-color="#2AB5F0"/>
</linearGradient>
</defs>
</svg>
