<svg width="56" height="52" viewBox="0 0 56 52" fill="none" xmlns="http://www.w3.org/2000/svg">
<path d="M53.8016 20.1183H51.809C51.3133 15.1862 48.9971 10.6159 45.3125 7.29958C41.6277 3.98331 36.8398 2.15965 31.8826 2.18452H23.9121C22.1065 2.18202 20.3091 2.43007 18.5718 2.92179C16.3519 1.71834 13.9883 0.801095 11.5375 0.191879C11.0469 0.0789633 10.5317 0.15597 10.0956 0.407334C9.65926 0.658698 9.33443 1.06575 9.18623 1.54686C8.35783 4.34027 7.94809 7.24154 7.97072 10.155C6.7295 11.821 5.75475 13.6696 5.0814 15.6345L1.67399 16.1327C1.2024 16.2091 0.774173 16.4523 0.466776 16.818C0.159581 17.1838 -0.00605822 17.6477 0.000169427 18.1253V26.0959C-0.000868391 26.5137 0.129277 26.9211 0.372543 27.2607C0.615602 27.6005 0.959334 27.8552 1.35515 27.9889L5.34042 29.304C5.85104 30.7038 6.51959 32.041 7.33306 33.2893L5.7788 36.059C5.2576 36.9717 5.11789 38.0533 5.39045 39.0686C5.66277 40.0836 6.32534 40.9499 7.23345 41.479L10.6209 43.4716C11.2264 43.8229 11.9136 44.0084 12.6136 44.0097C12.9637 44.0124 13.3126 43.9655 13.6497 43.8702C14.6782 43.6097 15.5602 42.9498 16.1007 42.037L16.838 40.7417C19.0954 41.6077 21.4941 42.0469 23.9115 42.037H25.9042V33.0898C25.9054 31.8107 26.5207 30.61 27.5581 29.8617C28.2364 29.3706 29.0521 29.1057 29.8895 29.1045C30.3172 29.1076 30.7413 29.1817 31.1448 29.3237C34.2122 30.3333 37.5223 30.3333 40.5899 29.3237C42.9182 28.5229 45.361 28.1057 47.8229 28.0882C48.8091 28.0945 49.794 28.1609 50.772 28.2875C51.2235 26.9288 51.5306 25.526 51.6886 24.103H53.8008C54.5127 24.103 55.1705 23.7231 55.5266 23.1066C55.8825 22.4901 55.8825 21.7305 55.5266 21.114C55.1706 20.4975 54.5128 20.1177 53.8008 20.1177L53.8016 20.1183ZM13.9489 18.1257C13.4204 18.1257 12.9136 17.9159 12.5399 17.5421C12.1661 17.1684 11.9563 16.6616 11.9563 16.1331C11.9563 15.6046 12.1661 15.0978 12.5399 14.7241C12.9135 14.3503 13.4204 14.1404 13.9489 14.1404C14.4774 14.1404 14.9842 14.3503 15.3579 14.7241C15.7317 15.0977 15.9415 15.6046 15.9415 16.1331C15.9415 16.6616 15.7317 17.1684 15.3579 17.5421C14.9843 17.9159 14.4774 18.1257 13.9489 18.1257ZM35.8679 12.1478H23.9121V8.16253H35.8679V12.1478Z" fill="url(#paint0_linear_42_704)"/>
<path d="M54.4394 31.1973C50.1424 29.7832 45.5055 29.7832 41.2083 31.1973C37.7419 32.3535 33.9939 32.3535 30.5277 31.1973C29.9198 30.9968 29.2527 31.1006 28.7344 31.4763C28.2119 31.8482 27.9004 32.449 27.8975 33.0903V49.0314C27.8964 49.4492 28.0266 49.8567 28.2698 50.1963C28.5129 50.5361 28.8566 50.7908 29.2524 50.9244C33.5462 52.3585 38.1901 52.3585 42.4836 50.9244C45.9499 49.7683 49.698 49.7683 53.1641 50.9244C53.772 51.1249 54.4392 51.0211 54.9575 50.6454C55.4799 50.2735 55.7914 49.6728 55.7944 49.0314V33.0903C55.7954 32.6725 55.6653 32.2651 55.422 31.9255C55.1789 31.5857 54.8352 31.331 54.4394 31.1973ZM41.8459 45.1458C40.789 45.1458 39.7752 44.7259 39.028 43.9784C38.2806 43.2312 37.8606 42.2174 37.8606 41.1605C37.8606 40.1036 38.2806 39.0898 39.028 38.3426C39.7752 37.5952 40.789 37.1752 41.8459 37.1752C42.9028 37.1752 43.9166 37.5951 44.6638 38.3426C45.4113 39.0898 45.8312 40.1036 45.8312 41.1605C45.8052 42.2002 45.3739 43.1884 44.6294 43.9143C43.8846 44.6403 42.8859 45.0466 41.8459 45.0461V45.1458Z" fill="url(#paint1_linear_42_704)"/>
<defs>
<linearGradient id="paint0_linear_42_704" x1="27.8968" y1="0.141114" x2="52.807" y2="55.1091" gradientUnits="userSpaceOnUse">
<stop stop-color="#41EEAB"/>
<stop offset="1" stop-color="#2AB5F0"/>
</linearGradient>
<linearGradient id="paint1_linear_42_704" x1="41.8459" y1="30.1367" x2="54.2341" y2="57.5619" gradientUnits="userSpaceOnUse">
<stop stop-color="#41EEAB"/>
<stop offset="1" stop-color="#2AB5F0"/>
</linearGradient>
</defs>
</svg>
