<svg width="52" height="52" viewBox="0 0 52 52" fill="none" xmlns="http://www.w3.org/2000/svg">
<path d="M23.793 25.2093L6.62955 42.3732C6.52731 42.4746 6.38901 42.5312 6.24496 42.5303C6.09059 42.5229 5.94671 42.4501 5.84955 42.3299C1.88641 37.451 -0.178552 31.3037 0.0350811 25.0213C0.24887 18.7392 2.72734 12.7462 7.01305 8.14813C11.2988 3.55003 17.1028 0.657093 23.3545 0.00275966C23.5063 -0.0129825 23.6578 0.0362754 23.7714 0.138176C23.885 0.240586 23.9498 0.38616 23.9501 0.53901V24.8247C23.951 24.9686 23.8945 25.1071 23.7931 25.2092L23.793 25.2093Z" fill="url(#paint0_linear_42_723)"/>
<path d="M28.1635 23.292V0.544181C28.1639 0.391332 28.2287 0.245758 28.3423 0.143348C28.4603 0.0334892 28.6211 -0.0181381 28.7808 0.00251456C34.7192 0.639991 40.2603 3.29043 44.4831 7.51348C48.7063 11.7364 51.3566 17.2778 51.9941 23.2157C52.0098 23.3676 51.9606 23.5191 51.8587 23.6327C51.7591 23.7557 51.6107 23.8288 51.4524 23.8331H28.7046C28.4055 23.8331 28.1631 23.5907 28.1631 23.2916L28.1635 23.292Z" fill="url(#paint1_linear_42_723)"/>
<path d="M42.7872 45.1575C42.8961 45.2647 42.9546 45.413 42.9485 45.5655C42.9423 45.7182 42.8719 45.8612 42.7547 45.9592C38.1176 49.822 32.2841 51.9561 26.2491 51.9977C20.214 52.0392 14.3519 49.9854 9.66236 46.1867C9.5437 46.0902 9.47125 45.9482 9.46296 45.7955C9.45466 45.6428 9.51137 45.4937 9.61902 45.385L25.7048 29.2828C25.916 29.0727 26.2573 29.0727 26.4685 29.2828L42.7872 45.1575Z" fill="url(#paint2_linear_42_723)"/>
<path d="M51.8614 28.226C51.9633 28.3396 52.0125 28.4911 51.9968 28.6429C51.4888 33.5469 49.5931 38.2049 46.532 42.0693C46.4372 42.1902 46.2954 42.265 46.1422 42.2752H46.1097C45.9683 42.276 45.8322 42.2215 45.7305 42.1235L32.2335 28.9787C32.0737 28.8245 32.0244 28.5884 32.1089 28.3831C32.1928 28.179 32.3921 28.0461 32.6126 28.0473H51.4553C51.61 28.0461 51.7579 28.1111 51.8615 28.226L51.8614 28.226Z" fill="url(#paint3_linear_42_723)"/>
<defs>
<linearGradient id="paint0_linear_42_723" x1="6.91644" y1="-2.04325" x2="39.5255" y2="34.9538" gradientUnits="userSpaceOnUse">
<stop stop-color="#41EEAB"/>
<stop offset="1" stop-color="#2AB5F0"/>
</linearGradient>
<linearGradient id="paint1_linear_42_723" x1="35.0318" y1="-1.14697" x2="49.6963" y2="28.4215" gradientUnits="userSpaceOnUse">
<stop stop-color="#41EEAB"/>
<stop offset="1" stop-color="#2AB5F0"/>
</linearGradient>
<linearGradient id="paint2_linear_42_723" x1="19.1127" y1="28.0264" x2="29.856" y2="59.7417" gradientUnits="userSpaceOnUse">
<stop stop-color="#41EEAB"/>
<stop offset="1" stop-color="#2AB5F0"/>
</linearGradient>
<linearGradient id="paint3_linear_42_723" x1="37.8122" y1="27.3637" x2="44.7305" y2="46.9064" gradientUnits="userSpaceOnUse">
<stop stop-color="#41EEAB"/>
<stop offset="1" stop-color="#2AB5F0"/>
</linearGradient>
</defs>
</svg>
