<svg width="52" height="56" viewBox="0 0 52 56" fill="none" xmlns="http://www.w3.org/2000/svg">
<path d="M52 50.5901C52 53.3395 49.7651 55.5743 47.0157 55.5743H46.8817C44.1323 55.5743 41.8975 53.3395 41.8975 50.5901V29.3625H51.9929V50.5901H52Z" fill="url(#paint0_linear_42_715)"/>
<path d="M39.7896 50.59V0H0V50.343C0 53.2264 2.34761 55.567 5.22397 55.567H41.8411C40.5721 54.2839 39.7896 52.5285 39.7896 50.5827V50.59ZM21.9742 5.66811H33.5361V7.78308H21.9742V5.66811ZM17.4552 13.74H33.5431V15.8549H17.4552V13.74ZM5.57646 31.9992V29.8842H33.5363V31.9992H5.57646ZM33.5437 37.9561V40.071H5.57646V37.9561H33.5437ZM5.57646 23.9341V21.8191H33.5363V23.9341H5.57646ZM4.10304 7.23996V5.09679L6.2321 5.29419C6.32375 5.30124 6.40835 5.30829 6.4859 5.30829C7.14859 5.30829 7.78308 5.01924 8.21312 4.51165L9.6936 2.79148L11.1741 4.51165C11.6112 5.01924 12.2386 5.30829 12.9013 5.30829C12.9789 5.30829 13.0705 5.30829 13.1551 5.29419L15.2912 5.08269V7.23291C15.2912 13.8316 10.8004 16.3064 10.6101 16.4119L9.6936 16.9054L8.77711 16.4119C8.58677 16.3061 4.09599 13.8316 4.09599 7.24024L4.10304 7.23996ZM19.5632 48.1508H5.57618V46.0358H19.5564V48.1508H19.5632ZM33.1977 48.5315C33.1977 47.1849 32.7253 46.4447 32.2812 46.3248C31.9146 46.2191 31.2519 46.5081 30.5892 47.6361C29.6163 49.2717 28.2486 49.8357 27.029 49.8357C26.5496 49.8357 26.0914 49.7511 25.6966 49.603C24.1597 49.0461 23.208 47.622 23.4406 46.2261C23.7579 44.2733 26.1478 43.2652 26.4157 43.1594L27.2052 45.1193C26.5849 45.3731 25.619 46.0076 25.5274 46.5645C25.4639 46.9452 25.8587 47.4035 26.4227 47.6079C26.7541 47.7278 27.9032 48.0098 28.7703 46.5504C29.856 44.7245 31.3717 43.8785 32.8452 44.2804C34.3679 44.6963 35.3126 46.3248 35.3126 48.5244H33.1977V48.5315Z" fill="url(#paint1_linear_42_715)"/>
<defs>
<linearGradient id="paint0_linear_42_715" x1="41.9946" y1="25.8252" x2="64.7905" y2="43.6888" gradientUnits="userSpaceOnUse">
<stop stop-color="#41EEAB"/>
<stop offset="1" stop-color="#2AB5F0"/>
</linearGradient>
<linearGradient id="paint1_linear_42_715" x1="0.402318" y1="-7.499" x2="45.9752" y2="62.2719" gradientUnits="userSpaceOnUse">
<stop stop-color="#41EEAB"/>
<stop offset="1" stop-color="#2AB5F0"/>
</linearGradient>
</defs>
</svg>
