<svg width="52" height="52" viewBox="0 0 52 52" fill="none" xmlns="http://www.w3.org/2000/svg">
<path d="M6.39282 9.45508H14.6564C14.7823 9.45646 14.9032 9.40702 14.9921 9.31798C15.0811 9.22915 15.1305 9.1082 15.1292 8.98235V0.510986C15.0137 0.588595 14.9062 0.677232 14.8079 0.77552L6.92298 8.66094C6.69548 8.88805 6.51545 9.1579 6.39292 9.45493L6.39282 9.45508Z" fill="url(#paint0_linear_42_472)"/>
<path d="M49.3536 7.37462H45.8551V2.6473C45.8532 1.94589 45.5737 1.27363 45.0777 0.77765C44.5817 0.281678 43.9095 0.00196657 43.208 0H17.9639V8.98166C17.9598 9.85799 17.6097 10.6973 16.9901 11.3169C16.3704 11.9366 15.5311 12.2866 14.6548 12.2907H6.14564V16.6399H14.2766C15.7979 16.6334 17.22 17.3941 18.0585 18.6632L21.6702 24.0899L36.8732 24.0142H37.0625C38.2631 24.0239 39.4118 24.5051 40.2608 25.354C41.1099 26.2032 41.5909 27.3519 41.6005 28.5525V44.4363C41.5974 44.4999 41.6039 44.5637 41.6195 44.6254H43.208C43.9094 44.6234 44.5817 44.3437 45.0777 43.8477C45.5737 43.3517 45.8532 42.6795 45.8551 41.9781V10.2105H49.1643V44.4363C49.1584 46.0623 48.3246 47.5732 46.9521 48.445C46.3708 48.8187 45.7104 49.0517 45.0233 49.1258C44.834 49.1447 44.6262 49.1636 44.4369 49.1636C44.1202 49.1636 43.8043 49.1317 43.4938 49.0684C43.408 49.0509 43.3304 49.0153 43.2464 48.9934C43.031 48.943 42.8196 48.8772 42.6134 48.7968C42.5275 48.761 42.4522 48.7086 42.3691 48.6682C42.1777 48.58 41.9921 48.4791 41.8138 48.3662C41.7418 48.3184 41.6813 48.2573 41.6125 48.2059C41.4376 48.0802 41.2714 47.943 41.115 47.795C41.0587 47.7395 41.0133 47.6733 40.96 47.6152H40.9598C40.8071 47.4543 40.6657 47.2829 40.5369 47.1023C40.4939 47.0398 40.463 46.9693 40.4228 46.9049H40.423C40.3009 46.7144 40.1926 46.5151 40.0994 46.3089C40.0681 46.236 40.0496 46.1568 40.0214 46.082H40.0212C39.9389 45.8722 39.8719 45.6565 39.8209 45.4369C39.801 45.3455 39.7965 45.2492 39.7821 45.1558C39.7395 44.9181 39.7151 44.6776 39.7096 44.4362V28.5525C39.7076 27.851 39.4279 27.179 38.9319 26.6828C38.436 26.1868 37.7639 25.9073 37.0625 25.9051H36.8732L20.6677 25.9808L16.4887 19.7029C15.9938 18.9668 15.1635 18.527 14.2766 18.5309H2.6471C1.94569 18.5329 1.27343 18.8124 0.777449 19.3084C0.281476 19.8044 0.00196657 20.4766 0 21.178V45.6653C0.000196959 47.3453 0.667523 48.9565 1.85548 50.1444C3.04359 51.3324 4.65486 51.9999 6.33481 51.9999H44.4368C45.5626 52.0025 46.6746 51.7503 47.6892 51.2624C48.9801 50.6491 50.0704 49.6821 50.8336 48.4737C51.5967 47.2655 52.0012 45.8654 52.0005 44.4362V10.0213C51.9985 9.31989 51.719 8.64783 51.223 8.15165C50.7271 7.65568 50.0548 7.37597 49.3534 7.374L49.3536 7.37462ZM21.746 44.9098C21.7458 45.2858 21.5965 45.6465 21.3306 45.9126C21.0645 46.1785 20.7038 46.3278 20.3278 46.328H8.98222C8.60621 46.3278 8.24557 46.1785 7.97943 45.9126C7.71352 45.6465 7.56421 45.2858 7.56401 44.9098V39.237C7.56421 38.861 7.71351 38.5004 7.97943 38.2342C8.24553 37.9683 8.60621 37.819 8.98222 37.8188H20.3278C20.7038 37.819 21.0644 37.9683 21.3306 38.2342C21.5965 38.5003 21.7458 38.861 21.746 39.237V44.9098Z" fill="url(#paint1_linear_42_472)"/>
<path d="M10.4014 40.655H18.9105V43.4914H10.4014V40.655Z" fill="url(#paint2_linear_42_472)"/>
<defs>
<linearGradient id="paint0_linear_42_472" x1="10.761" y1="0.510986" x2="14.701" y2="11.1157" gradientUnits="userSpaceOnUse">
<stop stop-color="#41EEAB"/>
<stop offset="1" stop-color="#2AB5F0"/>
</linearGradient>
<linearGradient id="paint1_linear_42_472" x1="26.0002" y1="6.70552e-07" x2="48.5" y2="62" gradientUnits="userSpaceOnUse">
<stop stop-color="#41EEAB"/>
<stop offset="1" stop-color="#2AB5F0"/>
</linearGradient>
<linearGradient id="paint2_linear_42_472" x1="14.656" y1="40.655" x2="15.1123" y2="44.4271" gradientUnits="userSpaceOnUse">
<stop stop-color="#41EEAB"/>
<stop offset="1" stop-color="#2AB5F0"/>
</linearGradient>
</defs>
</svg>
