<svg width="52" height="52" viewBox="0 0 52 52" fill="none" xmlns="http://www.w3.org/2000/svg">
<path fill-rule="evenodd" clip-rule="evenodd" d="M30.4896 26L21.4041 20.1436V31.8569L30.4896 26ZM52 9.92529V42.0753L0.000547901 42.0755V9.9255L52 9.92529ZM8.29399 52V44.7079H0V48.7636C0 50.5469 1.45272 51.9996 3.23598 51.9996L8.29399 52ZM8.29399 7.2921V0H3.23641C1.45311 0 0.000437986 1.45272 0.000437986 3.23598V7.29237L8.29388 7.29258L8.29399 7.2921ZM19.2201 52V44.7079H10.9272V52H19.2201ZM19.2201 7.2921V0H10.9272V7.2921H19.2201ZM30.1473 52V44.7079H21.8533V52H30.1473ZM30.1473 7.2921V0H21.8533V7.2921H30.1473ZM41.0734 52V44.7079H32.7799V52H41.0734ZM43.706 44.7079V52H48.7635C50.5468 52 51.9995 50.5473 51.9995 48.764V44.7083L43.706 44.7079ZM41.0734 7.2921V0H32.7799V7.2921H41.0734ZM43.706 0V7.2921H51.9994L51.9996 3.23636C51.9996 1.45305 50.5469 0.000383238 48.7636 0.000383238L43.706 0ZM22.6223 17.8035L32.0803 23.8998C33.6113 24.8865 33.6113 27.1148 32.0803 28.1008L22.6223 34.1971C20.9672 35.2633 18.7709 34.0721 18.7709 32.0962V19.9037C18.7709 17.9323 20.9644 16.7353 22.6223 17.8035V17.8035Z" fill="url(#paint0_linear_42_719)"/>
<defs>
<linearGradient id="paint0_linear_42_719" x1="5" y1="-7.5" x2="46" y2="66" gradientUnits="userSpaceOnUse">
<stop stop-color="#41EEAB"/>
<stop offset="1" stop-color="#2AB5F0"/>
</linearGradient>
</defs>
</svg>
