<svg width="51" height="53" viewBox="0 0 51 53" fill="none" xmlns="http://www.w3.org/2000/svg">
<path fill-rule="evenodd" clip-rule="evenodd" d="M18.369 35.5218L25.2656 47.2246C25.9641 48.4179 25.9618 49.8871 25.2595 51.0783C24.5569 52.2696 23.2611 53.0021 21.86 53C20.4589 52.9979 19.1654 52.2612 18.4668 51.0679L10.5468 37.5908L18.369 35.5218ZM38.6481 0.07382C37.9372 0.268569 37.3334 0.730864 36.9671 1.36053C36.6011 1.99003 36.5024 2.73611 36.6926 3.43671L45.4991 35.7909C45.7575 36.7372 46.5102 37.4761 47.4733 37.7292C48.4364 37.9824 49.4641 37.7113 50.1688 37.0182C50.8735 36.3251 51.1482 35.3151 50.8898 34.3688L42.0702 2.01463C41.872 1.31611 41.4016 0.722697 40.7608 0.363028C40.1202 0.0031352 39.361 -0.0938229 38.648 0.0930044L38.6481 0.07382ZM2.79623 21.8525C1.83627 22.1096 1.01743 22.727 0.516211 23.5717C0.0152248 24.4164 -0.128199 25.4208 0.117077 26.3685L2.15091 33.9014C2.4136 34.8507 3.04742 35.6594 3.91444 36.1512C4.78146 36.6433 5.81101 36.7786 6.77901 36.5278L20.0246 33.0369L16.0223 18.3042L2.77011 21.8206L2.79623 21.8525ZM17.9909 17.8426C24.8549 15.8057 30.0958 11.4371 35.2911 5.95402L43.009 34.3304C35.7408 32.1654 28.9551 30.9227 21.9737 32.5368L17.9648 17.8041L17.9909 17.8426ZM47.5198 14.2748C48.5682 14.3717 49.5301 14.8874 50.1803 15.7012C50.8307 16.515 51.1122 17.5555 50.9592 18.5793C50.8063 19.6031 50.232 20.5201 49.371 21.1159L47.5198 14.2748Z" fill="url(#paint0_linear_42_721)"/>
<defs>
<linearGradient id="paint0_linear_42_721" x1="14" y1="-7.5" x2="44" y2="64" gradientUnits="userSpaceOnUse">
<stop stop-color="#41EEAB"/>
<stop offset="1" stop-color="#2AB5F0"/>
</linearGradient>
</defs>
</svg>
